<svg width='24' height='24' viewBox='0 0 24 24' xmlns='http://www.w3.org/2000/svg' xmlns:xlink='http://www.w3.org/1999/xlink'><rect width='24' height='24' stroke='none' fill='#000000' opacity='0'/>


    <g transform="matrix(0.83 0 0 0.83 12 12)" >
        <g style="" >
            <g transform="matrix(1 0 0 1 -4.5 0)" >
                <path style="stroke: none; stroke-width: 1; stroke-dasharray: none; stroke-linecap: butt; stroke-dashoffset: 0; stroke-linejoin: miter; stroke-miterlimit: 4; fill: rgb(255,255,255); fill-rule: nonzero; opacity: 1;" transform=" translate(-7.5, -12)" d="M 13 17.22 L 13 19.36 L 2.07 19.36 L 2.07 3.25 C 2.07 2.6977152501692068 2.5177152501692066 2.25 3.07 2.25 L 11.89 2.25 C 12.442284749830794 2.25 12.89 2.6977152501692063 12.89 3.25 L 12.89 4.46 L 15 4.46 L 15 3.25 C 15.005577593314031 1.5456688287201517 13.634260576484497 0.1564844891957704 11.93 0.14000000000000057 L 3.11 0.14 C 1.3923944280262326 0.14 0 1.5323944280262327 0 3.25 L 0 20.76 C -0.000004286726410529213 21.583906665781463 0.32797427436206295 22.37392305655549 0.9115016563739418 22.955574144734534 C 1.4950290383858205 23.537225232913578 2.286097620933797 23.862657763449196 3.1100000000000008 23.860000000000003 L 11.93 23.860000000000003 C 13.634260576484499 23.843515510804234 15.005577593314035 22.45433117127985 15 20.75 L 15 17.22 Z" stroke-linecap="round" />
            </g>
            <g transform="matrix(1 0 0 1 -4.95 -1.08)" >
                <path style="stroke: none; stroke-width: 1; stroke-dasharray: none; stroke-linecap: butt; stroke-dashoffset: 0; stroke-linejoin: miter; stroke-miterlimit: 4; fill: rgb(255,255,255); fill-rule: nonzero; opacity: 1;" transform=" translate(-7.05, -10.92)" d="M 7.05 6.89 C 5.457803705968587 6.895509362690601 4.169990468202157 8.187794174199274 4.17 9.78 L 4.17 11.9 C 4.106903692260222 12.971244899285484 4.642566145355795 13.989251772405163 5.561199143909347 14.543923019419168 C 6.479832142462898 15.098594266433171 7.6301678575371 15.098594266433171 8.54880085609065 14.543923019419168 C 9.467433854644202 13.989251772405163 10.003096307739778 12.971244899285484 9.94 11.9 L 9.94 9.78 C 9.934513463180597 8.186175202719198 8.643824797280802 6.895486536819401 7.050000000000001 6.89 Z M 7.9399999999999995 11.89 C 7.976048108678257 12.22864258726334 7.815690338169275 12.558165820976647 7.526962640166674 12.738760905222613 C 7.238234942164072 12.919355989468578 6.871765057835926 12.919355989468578 6.583037359833325 12.738760905222613 C 6.294309661830724 12.558165820976646 6.1339518913217415 12.22864258726334 6.17 11.89 L 6.17 9.78 C 6.133951891321742 9.441357412736659 6.294309661830724 9.111834179023354 6.583037359833325 8.931239094777387 C 6.871765057835926 8.750644010531422 7.238234942164072 8.750644010531422 7.5269626401666745 8.931239094777387 C 7.815690338169276 9.111834179023354 7.976048108678258 9.441357412736659 7.9399999999999995 9.78 Z" stroke-linecap="round" />
            </g>
            <g transform="matrix(1 0 0 1 9.2 -1.16)" >
                <path style="stroke: none; stroke-width: 1; stroke-dasharray: none; stroke-linecap: butt; stroke-dashoffset: 0; stroke-linejoin: miter; stroke-miterlimit: 4; fill: rgb(255,255,255); fill-rule: nonzero; opacity: 1;" transform=" translate(-21.2, -10.84)" d="M 21.11 6.89 L 19.23 6.89 C 18.677715250169207 6.89 18.23 7.3377152501692064 18.23 7.89 L 18.23 13.79 C 18.23 14.342284749830792 18.677715250169207 14.79 19.23 14.79 C 19.782284749830794 14.79 20.23 14.342284749830792 20.23 13.79 L 20.23 12.66 L 21.11 12.66 C 22.18124489928548 12.723096307739779 23.199251772405162 12.187433854644205 23.753923019419165 11.268800856090653 C 24.30859426643317 10.350167857537102 24.30859426643317 9.199832142462899 23.753923019419165 8.281199143909348 C 23.199251772405162 7.362566145355796 22.18124489928548 6.826903692260221 21.11 6.890000000000001 Z M 21.11 10.66 L 20.23 10.66 L 20.23 8.89 L 21.11 8.89 C 21.44864258726334 8.853951891321742 21.778165820976646 9.014309661830724 21.95876090522261 9.303037359833326 C 22.139355989468577 9.591765057835927 22.139355989468577 9.958234942164074 21.95876090522261 10.246962640166675 C 21.778165820976646 10.535690338169276 21.44864258726334 10.696048108678259 21.11 10.66 Z" stroke-linecap="round" />
            </g>
            <g transform="matrix(1 0 0 1 1.78 -1.16)" >
                <path style="stroke: none; stroke-width: 1; stroke-dasharray: none; stroke-linecap: butt; stroke-dashoffset: 0; stroke-linejoin: miter; stroke-miterlimit: 4; fill: rgb(255,255,255); fill-rule: nonzero; opacity: 1;" transform=" translate(-13.79, -10.84)" d="M 15.67 6.89 L 11.9 6.89 C 11.347715250169207 6.89 10.9 7.3377152501692064 10.9 7.890000000000001 C 10.9 8.442284749830794 11.347715250169207 8.89 11.9 8.89 L 12.790000000000001 8.89 L 12.790000000000001 13.790000000000001 C 12.790000000000001 14.342284749830794 13.237715250169208 14.790000000000001 13.790000000000001 14.790000000000001 C 14.342284749830794 14.790000000000001 14.790000000000001 14.342284749830794 14.790000000000001 13.790000000000001 L 14.790000000000001 8.89 L 15.670000000000002 8.89 C 16.222284749830795 8.89 16.67 8.442284749830794 16.67 7.890000000000001 C 16.67 7.337715250169207 16.222284749830795 6.890000000000001 15.670000000000002 6.890000000000001 Z" stroke-linecap="round" />
            </g>
        </g>
    </g>
</svg>
