<svg width="19" height="24" viewBox="0 0 19 24" fill="none" xmlns="http://www.w3.org/2000/svg">
<path d="M13.1357 1.31641H3.42334C2.31877 1.31641 1.42334 2.21184 1.42334 3.3164V21.2395C1.42334 22.3441 2.31877 23.2395 3.42334 23.2395H15.9407C17.0453 23.2395 17.9407 22.3441 17.9407 21.2395V6.12146L13.1357 1.31641Z" stroke="white" stroke-width="1.5"/>
<path d="M12.637 9.7251H6.42627C5.3217 9.7251 4.42627 10.6205 4.42627 11.7251V17.9358C4.42627 19.0404 5.3217 19.9358 6.42627 19.9358H12.637C13.7416 19.9358 14.637 19.0404 14.637 17.9358V11.7251C14.637 10.6205 13.7416 9.7251 12.637 9.7251Z" stroke="white" stroke-width="1.5"/>
<path d="M4.42627 16.6324H8.03006M8.03006 16.6324H11.6339V19.9358H8.03006V16.6324ZM11.6339 13.0286V9.7251H8.03006V13.0286H11.6339Z" stroke="white" stroke-width="1.5"/>
<path d="M4.42627 13.0283H14.637" stroke="white" stroke-width="1.5"/>
</svg>
