<svg width="25" height="25" viewBox="0 0 25 25" fill="none" xmlns="http://www.w3.org/2000/svg">
<path d="M19.3128 3.18647C19.6199 3.49359 19.6199 3.99154 19.3128 4.29866C19.0057 4.60578 18.5078 4.60578 18.2006 4.29866C17.8935 3.99154 17.8935 3.49359 18.2006 3.18647C18.5078 2.87934 19.0057 2.87934 19.3128 3.18647Z" stroke="white" stroke-width="1.5"/>
<path d="M21.5369 5.41059C21.8441 5.71771 21.8441 6.21566 21.5369 6.52278C21.2298 6.82991 20.7319 6.82991 20.4247 6.52278C20.1176 6.21566 20.1176 5.71771 20.4247 5.41059C20.7319 5.10347 21.2298 5.10347 21.5369 5.41059Z" stroke="white" stroke-width="1.5"/>
<path d="M17.3422 2.37564L14.8638 4.8541L20.1467 10.137L22.6252 7.65856C23.4062 6.87751 23.4062 5.61118 22.6252 4.83013L20.1707 2.37564C19.3896 1.59459 18.1233 1.59459 17.3422 2.37564Z" stroke="white" stroke-width="1.5"/>
<path d="M19.9958 9.98488L15.0149 5.00398C14.6244 4.61346 13.9912 4.61346 13.6007 5.00398L13.4736 5.13102L19.8687 11.5261L19.9958 11.3991C20.3863 11.0086 20.3863 10.3754 19.9958 9.98488Z" stroke="white" stroke-width="1.5"/>
<path d="M19.2886 10.9461L14.0537 5.71109C13.2726 4.93004 12.0063 4.93004 11.2252 5.71109L4.99313 11.9432C2.76648 14.1699 2.76648 17.78 4.99313 20.0066C7.21977 22.2333 10.8299 22.2332 13.0565 20.0066L19.2886 13.7745C20.0697 12.9934 20.0697 11.7271 19.2886 10.9461Z" stroke="white" stroke-width="1.5"/>
</svg>
